<svg width="32" height="32" viewBox="0 0 32 32" fill="none" xmlns="http://www.w3.org/2000/svg">
<circle cx="16" cy="16" r="16" fill="#333333"/>
<rect x="5" y="8" width="22" height="16" rx="2" fill="#F0F0F0"/>
<path d="M24 21H14V20H24V21Z" fill="#333333"/>
<path d="M10.4081 16.0231L8.3676 18.0637C8.27757 18.1537 8.15754 18.1537 8.06752 18.0637C7.97749 17.9736 7.97749 17.8536 8.06752 17.7636L9.95802 15.8731L8.06752 13.9826C7.97749 13.8926 7.97749 13.7725 8.06752 13.6675C8.15754 13.5775 8.27757 13.5775 8.3676 13.6675L10.4081 15.723C10.4532 15.753 10.4832 15.8131 10.4832 15.8731C10.4832 15.9181 10.4532 15.9781 10.4081 16.0231Z" fill="#333333"/>
</svg>
