<svg width="32" height="32" viewBox="0 0 32 32" fill="none" xmlns="http://www.w3.org/2000/svg">
<circle cx="16" cy="16" r="16" fill="#333333"/>
<path d="M16 7C11.0154 7 7 11.0154 7 16C7 20.95 11.0154 25 16 25C20.95 25 25 20.95 25 16C25 11.0154 20.95 7 16 7ZM17.3846 21.5038H14.6846V13.7154H17.3846V21.5038ZM16 12.9538C15.1 12.9538 14.4077 12.2615 14.4077 11.3615C14.4077 10.4962 15.1 9.80385 16 9.80385C16.9 9.80385 17.5923 10.4962 17.5923 11.3615C17.5923 12.2615 16.9 12.9538 16 12.9538Z" fill="#F0F0F0"/>
</svg>
