<?xml version="1.0" encoding="utf-8"?>
<!-- Generator: Adobe Illustrator 22.0.0, SVG Export Plug-In . SVG Version: 6.00 Build 0)  -->
<svg version="1.1" id="close" xmlns="http://www.w3.org/2000/svg" xmlns:xlink="http://www.w3.org/1999/xlink" x="0px" y="0px"
	 viewBox="0 0 100 100" style="enable-background:new 0 0 100 100;" xml:space="preserve">
<style type="text/css">
	.st0{fill:#FFFFFF;}
</style>
<path id="circle" d="M50,26.5c-14.4,0-26,11.5-25.9,25.9c0,14.5,11.6,26,26,26c14.5,0,25.9-11.5,25.9-26C76,38,64.5,26.5,50,26.5z
	 M63.4,60.2L58,65.6l-7.9-8L42,65.7l-5.4-5.4l8.1-8l-8.1-8l5.4-5.4l8,8.1l8-8l5.4,5.4l-8,7.8L63.4,60.2z"/>
<polygon id="x" class="st0 counter-form" points="58,39 50,47 42,38.9 36.6,44.3 44.7,52.3 36.6,60.3 42,65.7 50.1,57.6 58,65.6 63.4,60.2 
	55.4,52.2 63.4,44.4 "/>
</svg>
