<svg xmlns="http://www.w3.org/2000/svg" viewBox="0 0 64 64" id="copy"><g><path d="M40.63,13H12.38A4.69,4.69,0,0,0,7.7,17.67V57.31A4.69,4.69,0,0,0,12.38,62H40.63a4.69,4.69,0,0,0,4.69-4.69V17.67A4.69,4.69,0,0,0,40.63,13Zm2.69,44.33A2.69,2.69,0,0,1,40.63,60H12.38A2.69,2.69,0,0,1,9.7,57.31V17.67A2.69,2.69,0,0,1,12.38,15H40.63a2.69,2.69,0,0,1,2.69,2.69Z"></path><path d="M51.74,2H23.26a4.58,4.58,0,0,0-4.58,4.57v3.55a1,1,0,0,0,2,0V6.57A2.58,2.58,0,0,1,23.26,4H51.74A2.57,2.57,0,0,1,54.3,6.57V46.44A2.58,2.58,0,0,1,51.74,49H48.5a1,1,0,0,0,0,2h3.24a4.58,4.58,0,0,0,4.57-4.58V6.57A4.57,4.57,0,0,0,51.74,2Z"></path></g></svg>