<svg width="32" height="32" viewBox="0 0 32 32" fill="none" xmlns="http://www.w3.org/2000/svg">
<path d="M1.59998 1.59998V30.4H30.4V1.59998H1.59998ZM20.8 3.99998H23.2V6.39998H20.8V3.99998ZM16 3.99998H18.4V6.39998H16V3.99998ZM28 28H3.99998V8.79998H28V28ZM28 6.39998H25.6V3.99998H28V6.39998Z" fill="#666666"/>
<path d="M12.48 20.3632C12.6497 20.5064 12.762 20.7197 12.792 20.956C12.822 21.1922 12.7673 21.4323 12.64 21.6232C12.5127 21.8142 12.3232 21.9404 12.1131 21.9742C11.9031 22.0079 11.6897 21.9464 11.52 21.8032L8.32 19.1032C8.22064 19.0194 8.14 18.9107 8.08446 18.7857C8.02892 18.6608 8 18.523 8 18.3832C8 18.2435 8.02892 18.1057 8.08446 17.9807C8.14 17.8558 8.22064 17.7471 8.32 17.6632L11.52 14.9632C11.6897 14.82 11.9031 14.7585 12.1131 14.7923C12.3232 14.826 12.5127 14.9523 12.64 15.1432C12.7673 15.3342 12.822 15.5742 12.792 15.8105C12.762 16.0468 12.6497 16.26 12.48 16.4032L10.133 18.3832L12.48 20.3632ZM18.369 12.3307L15.169 24.9307C15.1417 25.0464 15.0942 25.1548 15.0293 25.2495C14.9643 25.3443 14.8833 25.4235 14.7908 25.4826C14.6983 25.5417 14.5962 25.5794 14.4906 25.5936C14.385 25.6078 14.278 25.5981 14.1757 25.5652C14.0735 25.5323 13.9781 25.4768 13.8951 25.4019C13.8121 25.327 13.7433 25.2343 13.6926 25.1291C13.6419 25.024 13.6103 24.9085 13.5997 24.7894C13.5891 24.6703 13.5998 24.5501 13.631 24.4357L16.831 11.8357C16.8925 11.6104 17.0301 11.4213 17.2143 11.3089C17.3984 11.1965 17.6144 11.1698 17.8158 11.2347C18.0172 11.2995 18.188 11.4506 18.2914 11.6556C18.3949 11.8605 18.4227 12.1029 18.369 12.3307ZM23.68 19.1032L20.48 21.8032C20.3103 21.9464 20.0969 22.0079 19.8869 21.9742C19.6768 21.9404 19.4873 21.8142 19.36 21.6232C19.2327 21.4323 19.178 21.1922 19.208 20.956C19.238 20.7197 19.3503 20.5064 19.52 20.3632L21.867 18.3832L19.52 16.4032C19.436 16.3323 19.3651 16.2435 19.3116 16.1418C19.2581 16.0401 19.2229 15.9275 19.208 15.8105C19.1932 15.6935 19.199 15.5744 19.225 15.4599C19.2511 15.3454 19.297 15.2378 19.36 15.1432C19.423 15.0487 19.502 14.969 19.5924 14.9088C19.6828 14.8486 19.7829 14.809 19.8869 14.7923C19.9909 14.7756 20.0968 14.7821 20.1985 14.8114C20.3003 14.8407 20.396 14.8923 20.48 14.9632L23.68 17.6632C23.7794 17.7471 23.86 17.8558 23.9155 17.9807C23.9711 18.1057 24 18.2435 24 18.3832C24 18.523 23.9711 18.6608 23.9155 18.7857C23.86 18.9107 23.7794 19.0194 23.68 19.1032Z" fill="#666666"/>
</svg>