<?xml version="1.0" encoding="UTF-8"?>
<svg enable-background="new 0 0 512 512" version="1.1" viewBox="0 0 512 512" xml:space="preserve" xmlns="http://www.w3.org/2000/svg">
<g>
<path d="m113.47 309.41l-17.822 66.532-65.139 1.378c-19.467-36.107-30.509-77.418-30.509-121.32 0-42.451 10.324-82.483 28.624-117.73h0.014l57.992 10.632 25.404 57.644c-5.317 15.501-8.215 32.141-8.215 49.456 2e-3 18.792 3.406 36.797 9.651 53.408z" fill="#FBBB00"/>
<path d="m507.53 208.18c2.94 15.486 4.473 31.479 4.473 47.824 0 18.328-1.927 36.206-5.598 53.451-12.462 58.683-45.025 109.92-90.134 146.19l-0.014-0.014-73.044-3.727-10.338-64.535c29.932-17.554 53.324-45.025 65.646-77.911h-136.89v-101.28h138.89 107.01z" fill="#518EF8"/>
<path d="m416.25 455.62l0.014 0.014c-43.871 35.263-99.601 56.362-160.27 56.362-97.491 0-182.25-54.491-225.49-134.68l82.961-67.91c21.619 57.698 77.278 98.771 142.53 98.771 28.047 0 54.323-7.582 76.87-20.818l83.383 68.262z" fill="#28B446"/>
<path d="m419.4 58.936l-82.933 67.896c-23.335-14.586-50.919-23.012-80.471-23.012-66.729 0-123.43 42.957-143.96 102.72l-83.397-68.276h-0.014c42.606-82.145 128.44-138.27 227.38-138.27 62.115 0 119.07 22.126 163.4 58.936z" fill="#F14336"/>
</g>
</svg>
