<?xml version="1.0" encoding="iso-8859-1"?>
<svg width="32px" height="32px" viewBox="0 0 32 32" version="1.1" xmlns="http://www.w3.org/2000/svg" xmlns:xlink="http://www.w3.org/1999/xlink">
	<g>
		<path d="M7.091875,19.338 L5.978,23.49625 L1.9068125,23.582375 C0.690125,21.3256875 0,18.74375 0,16 C0,13.3468125 0.64525,10.8448125 1.789,8.64175 L1.789875,8.64175 L5.414375,9.30625 L7.002125,12.909 C6.6698125,13.8778125 6.4886875,14.9178125 6.4886875,16 C6.4888125,17.1745 6.7015625,18.2998125 7.091875,19.338 Z" fill="#FBBB00"></path>
		<path d="M31.7204375,13.011 C31.9041875,13.978875 32,14.9784375 32,16 C32,17.1455 31.8795625,18.262875 31.650125,19.3406875 C30.87125,23.008375 28.8360625,26.211 26.01675,28.477375 L26.015875,28.4765 L21.450625,28.2435625 L20.8045,24.210125 C22.67525,23.113 24.13725,21.3960625 24.907375,19.3406875 L16.35175,19.3406875 L16.35175,13.011 L25.0321875,13.011 L31.7204375,13.011 Z" fill="#518EF8"></path>
		<path d="M26.0158125,28.4765 L26.0166875,28.477375 C23.27475,30.6813125 19.791625,32 16,32 C9.9068125,32 4.60925,28.5943125 1.9068125,23.5824375 L7.091875,19.3380625 C8.4430625,22.9441875 11.92175,25.51125 16,25.51125 C17.7529375,25.51125 19.3951875,25.037375 20.804375,24.210125 L26.0158125,28.4765 Z" fill="#28B446"></path>
		<path d="M26.21275,3.6835 L21.0294375,7.927 C19.571,7.015375 17.847,6.48875 16,6.48875 C11.8294375,6.48875 8.2856875,9.1735625 7.0021875,12.909 L1.789875,8.64175 L1.789,8.64175 C4.451875,3.5076875 9.81625,0 16,0 C19.8821875,0 23.44175,1.382875 26.21275,3.6835 Z" fill="#F14336"></path>
	</g>
</svg>
