<?xml version="1.0" encoding="UTF-8"?>
<svg fill="none" version="1.1" viewBox="1 1 49 32" xmlns="http://www.w3.org/2000/svg">
<clipPath id="a">
<path d="m0 0h960v720h-960v-720z"/>
</clipPath>
<g clip-path="url(#a)" fill-rule="evenodd">
<path d="m0 0h960v720h-960z" fill="#000" fill-opacity="0"/>
<path d="m49.073 33.05h-31.189v-12h-8.811v4l-8-8 8-8v4h8.811v-12h31.189z" fill="#cfe2f3"/>
<path d="m49.073 33.05h-31.189v-12h-8.811v4l-8-8 8-8v4h8.811v-12h31.189z" stroke="#000" stroke-linecap="butt" stroke-linejoin="round"/>
<path d="m33.479 33.05" fill="#000" fill-opacity="0"/>
<path d="m33.479 33.05" stroke="#000" stroke-linecap="butt" stroke-linejoin="round"/>
<path d="m33.479 33.05" fill="#000" fill-opacity="0"/>
<path d="m33.479 33.05" stroke="#000" stroke-linecap="butt" stroke-linejoin="round"/>
<path d="m45.073 6.1785h-24" fill="#000" fill-opacity="0"/>
<path d="m45.073 6.1785h-24" stroke="#000" stroke-linecap="butt" stroke-linejoin="round"/>
<path d="m36.554 22.693h-16" fill="#000" fill-opacity="0"/>
<path d="m36.554 22.693h-16" stroke="#000" stroke-linecap="butt" stroke-linejoin="round"/>
<path d="m36.614 17.942h-16" fill="#000" fill-opacity="0"/>
<path d="m36.614 17.942h-16" stroke="#000" stroke-linecap="butt" stroke-linejoin="round"/>
<path d="m36.74 12.879h-16" fill="#000" fill-opacity="0"/>
<path d="m36.74 12.879h-16" stroke="#000" stroke-linecap="butt" stroke-linejoin="round"/>
</g>
</svg>
