<svg width="32" height="32" viewBox="0 0 32 32" fill="none" xmlns="http://www.w3.org/2000/svg">
<path d="M9.28004 13.76C10.5207 13.76 11.52 14.7324 11.52 16.0174C11.52 17.2676 10.5207 18.24 9.28004 18.24C8.03942 18.24 7.04004 17.2676 7.04004 16.0174C7.04004 14.7324 8.03942 13.76 9.28004 13.76Z" fill="#333333"/>
<path d="M18.24 16C18.24 14.7629 17.2371 13.76 16 13.76C14.7629 13.76 13.76 14.7629 13.76 16C13.76 17.2371 14.7629 18.24 16 18.24C17.2371 18.24 18.24 17.2371 18.24 16Z" fill="#333333"/>
<path d="M22.72 13.76C23.9606 13.76 24.96 14.705 24.96 15.965C24.96 17.295 23.9606 18.24 22.72 18.24C21.4794 18.24 20.48 17.295 20.48 15.965C20.48 14.74 21.4794 13.76 22.72 13.76Z" fill="#333333"/>
</svg>
