<svg xmlns="http://www.w3.org/2000/svg" xmlns:xlink="http://www.w3.org/1999/xlink" width="56" height="42" viewBox="0 0 56 42">
<rect width="56" height="42" fill="#ED225D"/>
<path d="M18.56 28.14C17.6933 28.14 16.9 27.94 16.18 27.54C15.4733 27.14 14.9067 26.54 14.48 25.74C14.0667 24.9267 13.86 23.9 13.86 22.66C13.86 21.4067 14.06 20.38 14.46 19.58C14.8733 18.78 15.4333 18.1867 16.14 17.8C16.8467 17.4 17.6533 17.2 18.56 17.2C19.6133 17.2 20.54 17.4267 21.34 17.88C22.1533 18.3333 22.7933 18.9667 23.26 19.78C23.74 20.5933 23.98 21.5533 23.98 22.66C23.98 23.7667 23.74 24.7333 23.26 25.56C22.7933 26.3733 22.1533 27.0067 21.34 27.46C20.54 27.9133 19.6133 28.14 18.56 28.14ZM12.64 31.88V17.32H15.02V19.84L14.94 22.68L15.14 25.52V31.88H12.64ZM18.28 26C18.88 26 19.4133 25.8667 19.88 25.6C20.36 25.3333 20.74 24.9467 21.02 24.44C21.3 23.9333 21.44 23.34 21.44 22.66C21.44 21.9667 21.3 21.3733 21.02 20.88C20.74 20.3733 20.36 19.9867 19.88 19.72C19.4133 19.4533 18.88 19.32 18.28 19.32C17.68 19.32 17.14 19.4533 16.66 19.72C16.18 19.9867 15.8 20.3733 15.52 20.88C15.24 21.3733 15.1 21.9667 15.1 22.66C15.1 23.34 15.24 23.9333 15.52 24.44C15.8 24.9467 16.18 25.3333 16.66 25.6C17.14 25.8667 17.68 26 18.28 26ZM30.2309 28.2C29.2443 28.2 28.2776 28.06 27.3309 27.78C26.3976 27.4867 25.6109 27.0867 24.9709 26.58L26.0709 24.56C26.5776 24.9733 27.1909 25.3067 27.9109 25.56C28.6443 25.8133 29.4043 25.94 30.1909 25.94C31.1109 25.94 31.8309 25.7467 32.3509 25.36C32.8843 24.9733 33.1509 24.4533 33.1509 23.8C33.1509 23.36 33.0376 22.9733 32.8109 22.64C32.5976 22.3067 32.2109 22.0533 31.6509 21.88C31.1043 21.7067 30.3509 21.62 29.3909 21.62H26.0109L26.7309 14H34.9509V16.18H27.6909L29.0509 14.94L28.5109 20.64L27.1509 19.42H29.9709C31.3576 19.42 32.4709 19.6067 33.3109 19.98C34.1643 20.34 34.7843 20.8467 35.1709 21.5C35.5709 22.14 35.7709 22.8733 35.7709 23.7C35.7709 24.5133 35.5709 25.26 35.1709 25.94C34.7709 26.62 34.1576 27.1667 33.3309 27.58C32.5176 27.9933 31.4843 28.2 30.2309 28.2ZM44.1953 15.74L41.5153 17.22V16.78L44.1953 18.26L43.4153 19.62L40.8353 18.12L41.0953 17.98L41.1153 20.84H39.5953L39.6153 17.98L39.8753 18.12L37.3153 19.62L36.5153 18.26L39.2153 16.78V17.22L36.5153 15.74L37.3153 14.36L39.8753 15.88L39.6153 16.04L39.5953 13.16H41.1153L41.0953 16.04L40.8353 15.88L43.4153 14.36L44.1953 15.74Z" fill="#FFFFFF"/>
</svg>
