<?xml version="1.0" encoding="UTF-8" standalone="no"?>
<svg width="76px" height="35px" viewBox="0 0 76 35" version="1.1" xmlns="http://www.w3.org/2000/svg" xmlns:xlink="http://www.w3.org/1999/xlink">
    <!-- Generator: Sketch 3.7.2 (28276) - http://www.bohemiancoding.com/sketch -->
    <title>p5js-rect</title>
    <!-- <desc>Created with Sketch.</desc> -->
    <defs></defs>
    <g id="IDEs" stroke="none" stroke-width="1" fill="none" fill-rule="evenodd">
        <g id="Desktop-IDE-light" transform="translate(-92.000000, -60.000000)" fill="#EC245E">
            <g id="IDE-CORE-+-Web-dock-&amp;-identity-zone">
                <path d="M129.710529,73.8530142 C129.253577,72.8466312 128.618558,71.9963901 127.802993,71.3044255 C126.988668,70.612766 126.031332,70.0845674 124.932847,69.7207447 C123.833741,69.356617 122.6425,69.1745532 121.358504,69.1745532 C120.889453,69.1745532 120.364872,69.1995603 119.784453,69.2471348 C119.204033,69.296539 118.70427,69.3810142 118.284854,69.502695 L118.543577,63.9316028 L129.247372,63.9316028 L129.247372,60 L114.321807,60 L113.877573,74.0896667 C114.271861,73.8960142 114.722609,73.7136454 115.229197,73.5434752 C115.735164,73.3742199 116.25323,73.2223475 116.784635,73.088773 C117.31542,72.9555035 117.858923,72.8524255 118.414526,72.779234 C118.970128,72.7066525 119.494088,72.6700567 119.988577,72.6700567 C120.704252,72.6700567 121.408139,72.7487376 122.099617,72.9067092 C122.790164,73.0643759 123.414325,73.3437234 123.969927,73.7441418 C124.525529,74.1442553 124.975657,74.6727589 125.321861,75.3278227 C125.667135,75.9831915 125.840237,76.8087305 125.840237,77.8038298 C125.840237,78.5805745 125.710566,79.2786383 125.451533,79.8977163 C125.19219,80.5158794 124.840091,81.0321844 124.395858,81.4444965 C123.951314,81.8577234 123.433248,82.1730567 122.840109,82.3908014 C122.247281,82.6100709 121.617847,82.7192482 120.951496,82.7192482 C119.76615,82.7192482 118.741186,82.4094043 117.876916,81.7906312 C117.012336,81.1715532 116.39562,80.3527234 116.025529,79.332922 L115.975894,79.3509149 L112.759544,82.3136454 C113.409763,83.3563191 114.248285,84.2291277 115.284416,84.9217021 C116.790219,85.9283901 118.642226,86.4328014 120.840438,86.4328014 C122.148631,86.4328014 123.383613,86.2263404 124.543832,85.8140284 C125.704051,85.4017163 126.716606,84.8067305 127.581186,84.0293759 C128.445146,83.2535461 129.13042,82.3005319 129.637007,81.1715532 C130.142354,80.0428794 130.395803,78.7629433 130.395803,77.3305248 C130.395803,76.0194823 130.167172,74.860922 129.710529,73.8530142 L129.710529,73.8530142 Z M138.853303,82.0812624 L141.500401,81.2956738 L142.020328,82.8680709 L139.384088,83.7518582 L141.020803,86.0332979 L139.640949,87.0165035 L137.918613,84.7759291 L136.240639,86.9576454 L134.901113,85.954617 L136.537518,83.7518582 L133.880803,82.8095177 L134.40135,81.2359007 L137.068303,82.0812624 L137.068303,79.3686028 L138.853303,79.3686028 L138.853303,82.0812624 L138.853303,82.0812624 Z M165.099069,72.9616028 C164.70323,72.4517021 164.160347,72.0088936 163.469179,71.6325674 C162.777701,71.2562411 162.024799,71.068078 161.209854,71.068078 C160.493558,71.068078 159.839927,71.2138511 159.247099,71.5050922 C158.65396,71.7957234 158.358321,72.2818369 158.358321,72.9616028 C158.358321,73.6410638 158.684982,74.121078 159.339234,74.3992057 C159.993796,74.6785532 160.951131,74.964 162.21,75.2552411 C162.876661,75.4013191 163.549215,75.5952766 164.228285,75.8377234 C164.907664,76.0801702 165.525,76.4019078 166.080602,76.8026312 C166.635584,77.2030496 167.086332,77.7010567 167.432226,78.2954326 C167.7775,78.8904184 167.950912,79.6122695 167.950912,80.4615957 C167.950912,81.5301915 167.746788,82.4344113 167.339471,83.1742553 C166.932464,83.9147092 166.38896,84.5154894 165.70958,84.9765957 C165.030511,85.4377021 164.240383,85.7716383 163.339507,85.9777943 C162.438011,86.1839504 161.506734,86.2870284 160.543193,86.2870284 C159.159927,86.2870284 157.814818,86.0378723 156.506004,85.5407801 C155.1975,85.0439929 154.111113,84.3334255 153.247153,83.4112128 L156.172828,80.7165461 C156.666697,81.3481277 157.30823,81.869617 158.098978,82.2819291 C158.889106,82.6948511 159.765164,82.9007021 160.728704,82.9007021 C161.049161,82.9007021 161.376442,82.8650213 161.710237,82.7918298 C162.043412,82.7192482 162.35177,82.6042766 162.635931,82.446305 C162.919471,82.2886383 163.148102,82.076383 163.321204,81.8089291 C163.493376,81.5414752 163.579927,81.2145532 163.579927,80.8257234 C163.579927,80.0971631 163.240547,79.5759787 162.562099,79.2603404 C161.882409,78.9447021 160.86365,78.6290638 159.506442,78.3137305 C158.839471,78.1679574 158.191113,77.9804043 157.561679,77.7492411 C156.932245,77.5186879 156.370438,77.2155532 155.876569,76.838922 C155.38208,76.4625957 154.987792,75.996305 154.691533,75.437 C154.395274,74.8789149 154.246679,74.1872553 154.246679,73.3617163 C154.246679,72.3907092 154.450493,71.5538865 154.85812,70.8500284 C155.265128,70.1452553 155.802737,69.5697872 156.469088,69.1196596 C157.135748,68.6710567 157.88896,68.3368156 158.728723,68.1190709 C159.567865,67.9004113 160.432445,67.7906241 161.321223,67.7906241 C162.604599,67.7906241 163.858193,68.0092837 165.080146,68.4459929 C166.302409,68.8830071 167.271223,69.5514894 167.987828,70.449 L165.099069,72.9616028 L165.099069,72.9616028 Z M149.951077,67.4661418 L149.951077,86.8332199 C149.951077,87.8768085 149.864215,88.8661135 149.691734,89.8005248 C149.518321,90.7352411 149.191661,91.5482766 148.710201,92.2402411 C148.229051,92.9325106 147.574179,93.4838865 146.747135,93.8968085 C145.919471,94.3097305 144.839599,94.5155816 143.505967,94.5155816 C143.135876,94.5155816 142.765785,94.4911844 142.394763,94.443 C142.024672,94.3942057 141.728412,94.3454113 141.505985,94.297227 L141.876697,90.5833688 C142.074307,90.6321631 142.284015,90.6684539 142.506442,90.6928511 C142.728558,90.7166383 142.925547,90.7291418 143.09896,90.7291418 C143.617026,90.7291418 144.036752,90.6321631 144.357828,90.4379007 C144.678595,90.2433333 144.925529,89.9764894 145.098942,89.6367589 C145.271113,89.2967234 145.382482,88.9024043 145.432117,88.4531915 C145.481131,88.0042837 145.506259,87.5251844 145.506259,87.0155887 L145.506259,67.4661418 L149.951077,67.4661418 L149.951077,67.4661418 Z M106.629307,76.9663972 C106.629307,76.2869362 106.524453,75.6132695 106.314745,74.9453972 C106.104416,74.2784397 105.789544,73.6773546 105.370128,73.1430567 C104.950401,72.6099787 104.419617,72.1787589 103.777153,71.850617 C103.135,71.5230851 102.382409,71.3593191 101.518449,71.3593191 C100.703504,71.3593191 99.9747993,71.5288794 99.3329562,71.8689149 C98.6908029,72.2092553 98.1410949,72.6462695 97.685073,73.1793475 C97.2275,73.7136454 96.8822263,74.3208298 96.6477007,75.0002908 C96.4125547,75.6800567 96.2962226,76.3601277 96.2962226,77.0392837 C96.2962226,77.7187447 96.4125547,78.3924113 96.6477007,79.0596738 C96.8822263,79.7278511 97.2275,80.3283262 97.685073,80.8626241 C98.1410949,81.3963121 98.6908029,81.8275319 99.3329562,82.1544539 C99.9747993,82.4825957 100.703504,82.6457518 101.518449,82.6457518 C102.382409,82.6457518 103.135,82.4768014 103.777153,82.136461 C104.419617,81.7964255 104.950401,81.3600213 105.370128,80.8257234 C105.789544,80.2920355 106.104416,79.6848511 106.314745,79.0053901 C106.524453,78.3256241 106.629307,77.6461631 106.629307,76.9663972 L106.629307,76.9663972 Z M96.2586861,68.3011348 L96.2586861,70.7402411 L96.3700547,70.7402411 C96.5918613,70.4008156 96.8822263,70.0546809 97.240219,69.7027518 C97.5982117,69.3508227 98.0368613,69.0354894 98.5555474,68.7558369 C99.0736131,68.4774043 99.6602372,68.2465461 100.314489,68.0641773 C100.968431,67.8824184 101.703339,67.7906241 102.518285,67.7906241 C103.777153,67.7906241 104.937682,68.0278865 105.999562,68.5008865 C107.061131,68.9748014 107.975036,69.6240709 108.740657,70.449 C109.505347,71.274539 110.097865,72.2455461 110.518522,73.3617163 C110.937628,74.4784965 111.147956,75.6800567 111.147956,76.9663972 C111.147956,78.2530426 110.944453,79.4603972 110.536515,80.5890709 C110.129507,81.7177447 109.549088,82.7006454 108.795876,83.538078 C108.042664,84.3755106 107.12969,85.0439929 106.055401,85.5407801 C104.981113,86.0378723 103.764434,86.2870284 102.407226,86.2870284 C101.147737,86.2870284 99.9934124,86.032078 98.9439416,85.5227872 C97.8941606,85.0128865 97.0857299,84.3215319 96.5180292,83.4468936 L96.4441971,83.4468936 L96.4441971,94.5155816 L92,94.5155816 L92,68.3011348 L96.2586861,68.3011348 L96.2586861,68.3011348 Z" id="p5js-rect"></path>
            </g>
        </g>
    </g>
</svg>