<svg xmlns="http://www.w3.org/2000/svg" xmlns:xlink="http://www.w3.org/1999/xlink" width="56" height="42" viewBox="0 0 56 42">
    <g fill="none" fill-rule="evenodd">
        <path fill="#FFFFFF" d="M 43.75 15.44 L 42.761 16.157 L 41.735 14.796 L 40.734 16.122 L 39.771 15.388 L 40.746 14.051 L 39.164 13.48 L 39.538 12.33 L 41.124 12.841 L 41.124 11.197 L 42.397 11.197 L 42.397 12.844 L 43.971 12.368 L 44.344 13.518 L 42.774 14.054 L 43.749 15.439 L 43.75 15.44 Z M 36.705 24.399 C 36.417 25.07 35.991 25.672 35.455 26.168 C 34.931 26.649 34.316 27.018 33.611 27.273 C 32.889 27.531 32.128 27.661 31.361 27.656 C 30.027 27.656 28.901 27.344 27.987 26.72 C 27.366 26.298 26.843 25.748 26.454 25.106 L 28.407 23.271 L 28.437 23.261 C 28.647 23.871 29.04 24.402 29.562 24.781 C 30.087 25.165 30.709 25.357 31.429 25.357 C 31.834 25.357 32.216 25.289 32.576 25.153 C 32.936 25.019 33.251 24.823 33.521 24.568 C 33.791 24.312 34.005 23.993 34.162 23.61 C 34.32 23.227 34.399 22.795 34.399 22.314 C 34.399 21.698 34.293 21.187 34.084 20.781 C 33.89 20.395 33.609 20.059 33.263 19.801 C 32.924 19.552 32.537 19.375 32.127 19.282 C 31.707 19.184 31.277 19.135 30.845 19.136 C 30.545 19.136 30.226 19.158 29.888 19.203 C 29.551 19.249 29.221 19.313 28.898 19.395 C 28.576 19.478 28.261 19.572 27.954 19.676 C 27.673 19.77 27.399 19.883 27.133 20.014 L 27.403 11.292 L 36.468 11.292 L 36.468 13.726 L 29.967 13.726 L 29.81 17.175 C 30.064 17.1 30.368 17.047 30.72 17.017 C 31.073 16.987 31.392 16.972 31.677 16.972 C 32.457 16.972 33.18 17.084 33.847 17.31 C 34.487 17.52 35.079 17.852 35.591 18.29 C 36.086 18.719 36.471 19.245 36.749 19.868 C 37.027 20.492 37.165 21.209 37.165 22.021 C 37.165 22.908 37.012 23.7 36.705 24.399 Z M 25.104 24.039 C 24.872 24.71 24.513 25.33 24.046 25.864 C 23.583 26.387 23.016 26.81 22.382 27.104 C 21.729 27.411 20.99 27.566 20.166 27.566 C 19.438 27.574 18.718 27.412 18.063 27.092 C 17.425 26.777 16.933 26.349 16.589 25.807 L 16.544 25.807 L 16.544 32.66 L 13.844 32.66 L 13.844 16.43 L 16.432 16.43 L 16.432 17.94 L 16.499 17.94 C 16.634 17.73 16.81 17.516 17.028 17.298 C 17.245 17.08 17.512 16.885 17.827 16.711 C 18.565 16.309 19.394 16.104 20.234 16.114 C 20.998 16.114 21.703 16.261 22.348 16.554 C 22.993 16.847 23.548 17.249 24.013 17.76 C 24.486 18.285 24.853 18.898 25.093 19.563 C 25.347 20.254 25.475 20.998 25.475 21.794 C 25.475 22.591 25.351 23.338 25.104 24.037 L 25.104 24.039 Z M 22.025 19.617 C 21.774 19.286 21.452 19.015 21.084 18.822 C 20.704 18.621 20.26 18.52 19.75 18.52 C 19.269 18.52 18.838 18.624 18.46 18.834 C 18.08 19.043 17.756 19.312 17.486 19.639 C 17.216 19.968 17.012 20.341 16.874 20.759 C 16.597 21.568 16.597 22.446 16.874 23.255 C 17.012 23.666 17.216 24.035 17.486 24.364 C 17.756 24.692 18.08 24.957 18.46 25.158 C 18.838 25.36 19.269 25.46 19.75 25.46 C 20.26 25.46 20.705 25.356 21.084 25.147 C 21.464 24.938 21.777 24.67 22.024 24.341 C 22.272 24.013 22.458 23.64 22.583 23.221 C 22.831 22.407 22.831 21.538 22.583 20.724 C 22.458 20.315 22.273 19.946 22.025 19.617"/>
    </g>
</svg>