<?xml version="1.0" encoding="UTF-8" standalone="no"?>
<svg width="20px" height="20px" viewBox="0 0 20 20" version="1.1" xmlns="http://www.w3.org/2000/svg" xmlns:xlink="http://www.w3.org/1999/xlink">
    <!-- Generator: Sketch 3.8.3 (29802) - http://www.bohemiancoding.com/sketch -->
    <title>preferences</title>
    <!-- <desc>Created with Sketch.</desc> -->
    <defs>
        <path d="M14.6822397,16.2117311 L15.1198278,19.0213068 C14.3844186,19.4395702 13.5928664,19.770504 12.7592794,20 L11.0818617,17.703677 C10.7282919,17.7528772 10.367116,17.7783101 10,17.7783101 C9.63288395,17.7783101 9.2717081,17.7528772 8.91813825,17.703677 L7.24072063,20 C6.40713364,19.770504 5.6155814,19.4395702 4.88017224,19.0213068 L5.31776031,16.2117311 C4.73977887,15.7753775 4.22462249,15.2602211 3.78826886,14.6822397 L0.978693166,15.1198278 C0.560429839,14.3844186 0.22949601,13.5928664 -2.84217094e-14,12.7592794 L2.29632299,11.0818617 C2.24712285,10.7282919 2.22168987,10.367116 2.22168987,10 C2.22168987,9.63288395 2.24712285,9.2717081 2.29632299,8.91813825 L-8.12791077e-15,7.24072063 C0.22949601,6.40713364 0.560429839,5.6155814 0.978693166,4.88017224 L3.78826886,5.31776031 C4.22462249,4.73977887 4.73977887,4.22462249 5.31776031,3.78826886 L4.88017224,0.978693166 C5.6155814,0.560429839 6.40713364,0.22949601 7.24072063,0 L8.91813825,2.29632299 C9.2717081,2.24712285 9.63288395,2.22168987 10,2.22168987 C10.367116,2.22168987 10.7282919,2.24712285 11.0818617,2.29632299 L12.7592794,1.98620157e-14 C13.5928664,0.22949601 14.3844186,0.560429839 15.1198278,0.978693166 L14.6822397,3.78826886 C15.2602211,4.22462249 15.7753775,4.73977887 16.2117311,5.31776031 L19.0213068,4.88017224 C19.4395702,5.6155814 19.770504,6.40713364 20,7.24072063 L17.703677,8.91813825 C17.7528772,9.2717081 17.7783101,9.63288395 17.7783101,10 C17.7783101,10.367116 17.7528772,10.7282919 17.703677,11.0818617 L20,12.7592794 C19.770504,13.5928664 19.4395702,14.3844186 19.0213068,15.1198278 L16.2117311,14.6822397 C15.7753775,15.2602211 15.2602211,15.7753775 14.6822397,16.2117311 L14.6822397,16.2117311 Z M10,13.8891551 C12.147921,13.8891551 13.8891551,12.147921 13.8891551,10 C13.8891551,7.85207897 12.147921,6.11084493 10,6.11084493 C7.85207897,6.11084493 6.11084493,7.85207897 6.11084493,10 C6.11084493,12.147921 7.85207897,13.8891551 10,13.8891551 Z" id="path-1"></path>
    </defs>
    <g id="IDEs" stroke="none" stroke-width="1" fill="none" fill-rule="evenodd">
        <g id="Desktop-IDE-light" fill="#ED225D">
            <g id="preferences">
                <mask id="mask-2" fill="white">
                    <use xlink:href="#path-1"></use>
                </mask>
                <use id="Combined-Shape" fill="#white" xlink:href="#path-1"></use>
            </g>
        </g>
    </g>
</svg>
