<?xml version="1.0" encoding="utf-8"?>
<!-- Generator: Adobe Illustrator 24.0.1, SVG Export Plug-In . SVG Version: 6.00 Build 0)  -->
<svg version="1.1" id="Layer_1" xmlns="http://www.w3.org/2000/svg" xmlns:xlink="http://www.w3.org/1999/xlink" x="0px" y="0px"
	 viewBox="0 0 16 16" style="enable-background:new 0 0 16 16;" xml:space="preserve">
<style type="text/css">
	.st0{fill-rule:evenodd;clip-rule:evenodd;fill:#AAAAAA;}
</style>
<path class="st0" d="M11.6,2.7c0.1-0.3,0.4-0.5,0.6-0.5c0.2,0,0.4,0.1,0.6,0.4c0.1,0.2,0.2,0.6,0.2,1c0,0.4-0.1,0.8-0.2,1.1
	C12.6,4.9,12.4,5,12.1,5c-0.2,0-0.4-0.1-0.5-0.4h0v0.3H11V1h0.6L11.6,2.7L11.6,2.7L11.6,2.7z M11.6,3.8c0,0.1,0,0.3,0.1,0.4
	c0.1,0.1,0.2,0.2,0.3,0.2c0.1,0,0.2-0.1,0.3-0.2c0.1-0.1,0.1-0.3,0.1-0.6c0-0.2,0-0.4-0.1-0.5c-0.1-0.1-0.2-0.2-0.3-0.2
	c-0.1,0-0.2,0.1-0.3,0.2c-0.1,0.1-0.1,0.3-0.1,0.5C11.6,3.5,11.6,3.8,11.6,3.8z M4.1,7.7L2,5.6l0.7-0.7l1,1V4.4C3.7,3.6,4.3,3,5.1,3
	c0,0,0,0,0,0h2.3v0.9H5.1c-0.3,0-0.5,0.2-0.5,0.5l0,1.5L5.5,5l0.7,0.7L4.1,7.7L4.1,7.7z M9.4,4.9H10V3.2C10,2.4,9.7,2,9.1,2
	C8.9,2,8.8,2,8.6,2.1c-0.1,0-0.3,0.1-0.4,0.2v0.7C8.5,2.7,8.7,2.6,9,2.6c0.3,0,0.4,0.2,0.4,0.5L8.8,3.2C8.3,3.3,8,3.6,8,4.1
	c0,0.3,0.1,0.5,0.2,0.6C8.3,4.9,8.5,5,8.7,5C9,5,9.2,4.8,9.3,4.5h0C9.4,4.5,9.4,4.9,9.4,4.9z M9.4,3.6v0.2c0,0.2,0,0.3-0.1,0.4
	C9.2,4.3,9.1,4.4,8.9,4.4c-0.1,0-0.2,0-0.2-0.1C8.7,4.2,8.6,4.1,8.6,4c0-0.2,0.1-0.4,0.3-0.4L9.4,3.6L9.4,3.6z M7,12.9H6.4v-0.4h0
	C6.2,12.8,6,13,5.7,13c-0.2,0-0.4-0.1-0.5-0.2C5.1,12.6,5,12.4,5,12.1c0-0.6,0.3-0.9,0.8-1l0.6-0.1c0-0.3-0.1-0.5-0.4-0.5
	c-0.3,0-0.5,0.1-0.8,0.3v-0.7c0.1-0.1,0.2-0.1,0.4-0.2C5.8,10,5.9,10,6.1,10C6.7,10,7,10.4,7,11.2C7,11.2,7,12.9,7,12.9z M6.4,11.8
	v-0.2L6,11.6c-0.2,0-0.3,0.2-0.3,0.4c0,0.1,0,0.2,0.1,0.2c0.1,0.1,0.1,0.1,0.2,0.1c0.1,0,0.2-0.1,0.3-0.2
	C6.3,12.1,6.4,11.9,6.4,11.8L6.4,11.8z M9.3,13c0.3,0,0.6-0.1,0.7-0.2v-0.7c-0.2,0.1-0.3,0.2-0.6,0.2c-0.2,0-0.4-0.1-0.5-0.2
	c-0.1-0.1-0.2-0.3-0.2-0.6c0-0.3,0.1-0.5,0.2-0.6c0.1-0.1,0.3-0.2,0.5-0.2c0.2,0,0.4,0.1,0.5,0.2v-0.7C9.9,10,9.7,10,9.4,10
	c-0.4,0-0.8,0.1-1,0.4C8.1,10.7,8,11.1,8,11.6c0,0.4,0.1,0.8,0.3,1C8.6,12.9,8.9,13,9.3,13z M2,9l1-1h9l1,1v5l-1,1H3l-1-1V9z M3,9v5
	h9V9H3z M6,7l1-1h7l1,1v5l-1,1V7H6z"/>
</svg>
