<?xml version="1.0" encoding="UTF-8"?>
<svg fill="none" version="1.1" viewBox="2 3 50 33" xmlns="http://www.w3.org/2000/svg">
<clipPath id="a">
<path d="m0 0h960v720h-960v-720z"/>
</clipPath>
<g clip-path="url(#a)" fill-rule="evenodd">
<path d="m0 0h960v720h-960z" fill="#000" fill-opacity="0"/>
<path d="m2.8241 3.4698h31.189v12h8.811v-4l8 8-8 8v-4h-8.811v12h-31.189z" fill="#cfe2f3"/>
<path d="m2.8241 3.4698h31.189v12h8.811v-4l8 8-8 8v-4h-8.811v12h-31.189z" stroke="#000" stroke-linecap="butt" stroke-linejoin="round"/>
<path d="m18.419 3.4698" fill="#000" fill-opacity="0"/>
<path d="m18.419 3.4698" stroke="#000" stroke-linecap="butt" stroke-linejoin="round"/>
<path d="m18.419 3.4698" fill="#000" fill-opacity="0"/>
<path d="m18.419 3.4698" stroke="#000" stroke-linecap="butt" stroke-linejoin="round"/>
<path d="m3.2625 10.218h24" fill="#000" fill-opacity="0"/>
<path d="m3.2625 10.218h24" stroke="#000" stroke-linecap="butt" stroke-linejoin="round"/>
<path d="m3.3438 18.577h16" fill="#000" fill-opacity="0"/>
<path d="m3.3438 18.577h16" stroke="#000" stroke-linecap="butt" stroke-linejoin="round"/>
<path d="m3.2835 23.328h16" fill="#000" fill-opacity="0"/>
<path d="m3.2835 23.328h16" stroke="#000" stroke-linecap="butt" stroke-linejoin="round"/>
<path d="m3.1575 28.391h16" fill="#000" fill-opacity="0"/>
<path d="m3.1575 28.391h16" stroke="#000" stroke-linecap="butt" stroke-linejoin="round"/>
</g>
</svg>
