<svg xmlns="http://www.w3.org/2000/svg" viewBox="0 0 101 101" id="sun"><path d="M50.5 34C41.4 34 34 41.4 34 50.5S41.4 67 50.5 67 67 59.6 67 50.5 59.6 34 50.5 34zm0 28.2c-6.4 0-11.7-5.2-11.7-11.7S44 38.8 50.5 38.8 62.2 44 62.2 50.5s-5.3 11.7-11.7 11.7zM50.5 28.8c1.3 0 2.4-1.1 2.4-2.4v-7.6c0-1.3-1.1-2.4-2.4-2.4s-2.4 1.1-2.4 2.4v7.6c0 1.3 1.1 2.4 2.4 2.4zM50.5 72.2c-1.3 0-2.4 1.1-2.4 2.4v7.6c0 1.3 1.1 2.4 2.4 2.4s2.4-1.1 2.4-2.4v-7.6c0-1.3-1.1-2.4-2.4-2.4zM67.5 35.9c.6 0 1.2-.2 1.7-.7l5.4-5.4c.9-.9.9-2.5 0-3.4s-2.5-.9-3.4 0l-5.4 5.4c-.9.9-.9 2.5 0 3.4.5.4 1.1.7 1.7.7zM31.8 65.8l-5.4 5.4c-.9.9-.9 2.5 0 3.4.5.5 1.1.7 1.7.7.6 0 1.2-.2 1.7-.7l5.4-5.4c.9-.9.9-2.5 0-3.4s-2.5-.9-3.4 0zM82.2 48.1h-7.6c-1.3 0-2.4 1.1-2.4 2.4s1.1 2.4 2.4 2.4h7.6c1.3 0 2.4-1.1 2.4-2.4s-1.1-2.4-2.4-2.4zM28.8 50.5c0-1.3-1.1-2.4-2.4-2.4h-7.6c-1.3 0-2.4 1.1-2.4 2.4s1.1 2.4 2.4 2.4h7.6c1.3 0 2.4-1.1 2.4-2.4zM69.2 65.8c-.9-.9-2.5-.9-3.4 0s-.9 2.5 0 3.4l5.4 5.4c.5.5 1.1.7 1.7.7.6 0 1.2-.2 1.7-.7.9-.9.9-2.5 0-3.4l-5.4-5.4zM31.8 35.2c.5.5 1.1.7 1.7.7s1.2-.2 1.7-.7c.9-.9.9-2.5 0-3.4l-5.4-5.4c-.9-.9-2.5-.9-3.4 0s-.9 2.5 0 3.4l5.4 5.4z"></path></svg>