<svg xmlns="http://www.w3.org/2000/svg" xmlns:xlink="http://www.w3.org/1999/xlink" fill="#000000" version="1.1" id="Capa_1" width="7" height="7" viewBox="0 0 92.179 92.18" xml:space="preserve">
    <g>
        <path d="M73.437,36.54v-9.192C73.437,12.268,61.169,0,46.09,0S18.744,12.268,18.744,27.348h11.355   c0-8.818,7.173-15.992,15.991-15.992c8.817,0,15.991,7.174,15.991,15.992v9.192H9.884v55.64h72.411V36.54H73.437z M50.609,71.115   V83.33h-9.037V71.115c-2.102-1.441-3.482-3.858-3.482-6.6c0-4.418,3.582-8,8-8s8,3.582,8,8   C54.09,67.257,52.71,69.674,50.609,71.115z"/>
    </g>
</svg>
